<svg id="dartboard1" xmlns="http://www.w3.org/2000/svg" xmlns:xlink="http://www.w3.org/1999/xlink" version="1.1" transform="translate(-5, -1)" viewBox="0 0 787 774" enable-background="new 0 0 774 774" xml:space="preserve">
  <g
   id="areas">
  <g
   id="g1076">
    <circle
   id="miss"
   fill="#000000"
   cx="401.5"
   cy="389"
   r="385" />
  </g>
    <g
   id="s">
      <path
   d="m 358.728,696.9 13.366,-102.239 c -17.849,-2.479 -35.233,-7.257 -51.936,-14.321 -2.225,-0.941 -4.422,-1.932 -6.605,-2.945 l -44.31,93.1 c 3.562,1.7 7.2,3.3 10.8,4.827 25.285,10.778 51.657,17.978 78.657,21.606 z"
   id="o19"
   style="fill:#0000ff;fill-opacity:1" /><path
   d="m 327.95,561.926 c -1.952,-0.825 -3.879,-1.693 -5.795,-2.581 l 66.1,-138.906 c 2.034,0.8 4.2,1.5 6.4,1.884 L 374.688,574.84 C 358.626,572.6 343,568.3 327.9,561.926 Z"
   id="s19"
   style="fill:#0000ff;fill-opacity:1" />
      <path
   d="m 93.073,346.728 102.239,13.366 c 2.479,-17.849 7.256,-35.233 14.321,-51.936 0.941,-2.225 1.932,-4.422 2.945,-6.605 l -93.115,-44.31 c -1.667,3.562 -3.29,7.15 -4.828,10.8 C 103.936,293.3 96.7,319.7 93.1,346.728 Z"
   id="o14"
   style="fill:#00ff00;fill-opacity:1" /><path
   d="m 215.161,362.688 c 2.248,-16.062 6.555,-31.707 12.914,-46.739 0.825,-1.952 1.693,-3.879 2.581,-5.796 l 138.907,66.1 c -0.828,2.034 -1.463,4.165 -1.884,6.372 z"
   id="s14"
   style="fill:#00ff00;fill-opacity:1" />
      <path
   d="m 620.759,169.2 c -1.515,-1.515 -3.051,-3.004 -4.592,-4.484 l -70.903,74.852 c 0.869,0.8 1.7,1.7 2.6,2.5 13.724,13.7 25.3,29.1 34.6,45.823 l 90.58,-49.287 C 659.04,213.3 641.5,190 620.8,169.241 Z"
   id="o4"
   style="fill:#0000ff;fill-opacity:1" /><path
   d="m 533.705,256.295 c 12.355,12.4 22.8,26.2 31.2,41.238 l -135.129,73.5 c -1.18,-1.886 -2.539,-3.646 -4.054,-5.26 l 105.77,-111.661 c 0.745,0.788 1.508,1.488 2.208,2.183 z"
   id="s4"
   style="fill:#0000ff;fill-opacity:1" />
      <path
   d="m 185.833,613.2 70.903,-74.852 c -0.868,-0.84 -1.738,-1.678 -2.594,-2.533 -13.724,-13.725 -25.313,-29.081 -34.638,-45.823 l -90.58,49.3 c 14.036,25.4 31.5,48.7 52.3,69.437 1.532,1.571 3.076,3.071 4.576,4.514 z"
   id="o16"
   style="fill:#0000ff;fill-opacity:1" /><path
   d="M 268.295,521.705 C 255.94,509.35 245.499,495.53 237.088,480.467 l 135.129,-73.528 c 1.179,1.9 2.5,3.6 4.1,5.26 L 270.547,523.86 C 269.763,523.1 269,522.4 268.3,521.705 Z"
   id="s16"
   style="fill:#0000ff;fill-opacity:1" />
      <path
   d="m 214.294,297.938 c 8.97,-18.388 20.556,-35.244 34.564,-50.298 L 174.01,176.742 c -21.495,22.955 -39.214,48.724 -52.84,76.883 z"
   id="o9"
   style="fill:#0000ff;fill-opacity:1" /><path
   d="m 232.372,306.542 c 8.066,-16.491 18.461,-31.617 31.017,-45.137 l 111.66,105.8 c -1.425,1.691 -2.689,3.522 -3.766,5.471 z"
   id="s9"
   style="fill:#0000ff;fill-opacity:1" />
      <path
   d="m 309.939,575.706 c -18.388,-8.97 -35.245,-20.556 -50.299,-34.564 l -70.898,74.8 c 22.955,21.5 48.7,39.2 76.9,52.84 z"
   id="o7"
   style="fill:#00ff00;fill-opacity:1" /><path
   d="m 318.542,557.628 c -16.491,-8.065 -31.616,-18.461 -45.137,-31.017 l 105.769,-111.66 c 1.691,1.4 3.5,2.7 5.5,3.8 z"
   id="s7"
   style="fill:#00ff00;fill-opacity:1" />
      <path
   d="m 127.005,535.812 90.584,-49.29 c -2.885,-5.424 -5.546,-10.981 -7.956,-16.681 -5.592,-13.221 -9.749,-26.869 -12.473,-40.836 L 95.789,447.9 c 4.072,21.2 10.3,42 18.8,62.082 3.784,8.818 7.911,17.418 12.411,25.83 z"
   id="o8"
   style="fill:#00ff00;fill-opacity:1" /><path
   d="m 228.074,462.051 c -5.027,-11.887 -8.772,-24.156 -11.234,-36.711 l 151.229,-28.172 c 0.54,2.2 1.3,4.3 2.2,6.3 L 235.145,476.993 C 232.603,472.1 230.2,467.1 228.1,462.051 Z"
   id="s8"
   style="fill:#00ff00;fill-opacity:1" />
      <path
   d="m 176.756,173.8 74.853,70.903 c 0.839,-0.868 1.677,-1.738 2.533,-2.594 13.724,-13.724 29.08,-25.313 45.823,-34.639 l -49.287,-90.58 c -25.392,14.036 -48.663,31.543 -69.437,52.317 -1.515,1.593 -3.041,3.093 -4.441,4.626 z"
   id="o12"
   style="fill:#00ff00;fill-opacity:1" /><path
   d="m 268.295,256.295 c 12.355,-12.356 26.175,-22.796 41.238,-31.207 l 73.528,135.1 c -1.885,1.18 -3.646,2.539 -5.259,4.054 L 266.14,258.472 c 0.715,-0.672 1.46,-1.472 2.16,-2.177 z"
   id="s12"
   style="fill:#00ff00;fill-opacity:1" />
      <path
   d="m 443.272,81.073 -13.365,102.2 c 17.849,2.5 35.2,7.3 51.9,14.321 2.225,0.9 4.4,1.9 6.6,2.945 l 44.31,-93.115 c -3.562,-1.667 -7.15,-3.29 -10.786,-4.828 C 496.672,91.9 470.3,84.7 443.3,81.073 Z"
   id="o1"
   style="fill:#0000ff;fill-opacity:1" /><path
   d="m 479.846,218.655 -66.101,138.907 c -2.034,-0.828 -4.165,-1.463 -6.372,-1.884 l 19.939,-152.517 c 16.062,2.2 31.7,6.6 46.7,12.914 1.99,0.825 3.888,1.725 5.788,2.58 z"
   id="s1"
   style="fill:#0000ff;fill-opacity:1" />
      <path
   d="m 492.061,202.294 c 18.388,9 35.2,20.6 50.3,34.564 l 70.898,-74.847 c -22.955,-21.496 -48.725,-39.215 -76.883,-52.84 z"
   id="o18"
   style="fill:#00ff00;fill-opacity:1" /><path
   d="m 483.458,220.372 c 16.491,8.1 31.6,18.5 45.1,31.017 l -105.769,111.7 c -1.691,-1.425 -3.522,-2.689 -5.472,-3.766 z"
   id="s18"
   style="fill:#00ff00;fill-opacity:1" />
      <path
   d="m 346.042,83.046 18.884,101.4 c 11.825,-2.069 23.87,-3.111 36.074,-3.111 8.396,0 16.7,0.5 24.9,1.484 L 439.267,80.569 C 426.638,79.022 413.859,78.238 400.959,78.238 382.4,78.2 364.1,79.8 346,83.046 Z"
   id="o20"
   style="fill:#00ff00;fill-opacity:1" /><path
   d="m 401,201.327 c 7.521,0 15,0.4 22.3,1.319 l -19.938,152.518 c -0.796,-0.056 -1.596,-0.095 -2.406,-0.095 -1.435,0 -2.846,0.1 -4.235,0.274 L 368.55,204.107 C 379.217,202.3 390,201.3 401,201.327 Z"
   id="s20"
   style="fill:#00ff00;fill-opacity:1" />
      <path
   d="m 254.187,115 49.29,90.584 c 5.423,-2.885 10.982,-5.546 16.681,-7.956 13.221,-5.592 26.87,-9.749 40.837,-12.473 L 342.112,83.8 c -21.24,4.071 -41.993,10.35 -62.083,18.848 -8.836,3.752 -17.429,7.852 -25.829,12.357 z"
   id="o5"
   style="fill:#0000ff;fill-opacity:1" /><path
   d="m 327.95,216.074 c 11.887,-5.028 24.156,-8.772 36.711,-11.234 l 28.17,151.2 c -2.177,0.54 -4.271,1.29 -6.26,2.229 L 313.046,223.145 c 4.848,-2.545 9.854,-4.945 14.854,-7.071 z"
   id="s5"
   style="fill:#0000ff;fill-opacity:1" />
      <path
   d="m 455.937,694.958 -18.88,-101.377 c -11.819,2.066 -23.858,3.108 -36.057,3.108 -8.393,0 -16.708,-0.503 -24.93,-1.482 l -13.365,102.2 c 12.625,1.5 25.4,2.3 38.3,2.329 18.588,0.064 36.895,-1.536 54.895,-4.778 z"
   id="o3"
   style="fill:#00ff00;fill-opacity:1" /><path
   d="m 401,576.674 c -7.519,0 -14.968,-0.448 -22.335,-1.318 l 19.936,-152.519 c 0.793,0.1 1.6,0.1 2.4,0.1 1.432,0 2.84,-0.1 4.226,-0.272 l 28.165,151.237 C 422.772,575.7 412,576.7 401,576.674 Z"
   id="s3"
   style="fill:#00ff00;fill-opacity:1" />
      <path
   d="M 708.928,431.272 606.689,417.907 c -2.479,17.849 -7.257,35.231 -14.321,51.935 -0.941,2.226 -1.932,4.423 -2.945,6.606 l 93.114,44.3 c 1.667,-3.562 3.289,-7.15 4.827,-10.786 10.7,-25.262 17.936,-51.662 21.536,-78.69 z"
   id="o10"
   style="fill:#00ff00;fill-opacity:1" /><path
   d="m 586.84,415.312 c -2.248,16.062 -6.556,31.705 -12.914,46.738 -0.825,1.951 -1.693,3.879 -2.581,5.8 L 432.439,401.749 c 0.828,-2.034 1.463,-4.166 1.884,-6.373 z"
   id="s10"
   style="fill:#00ff00;fill-opacity:1" />
      <path
   d="m 547.812,663 -49.29,-90.584 c -5.424,2.885 -10.981,5.546 -16.681,7.956 -13.222,5.592 -26.87,9.748 -40.837,12.473 l 18.883,101.4 c 21.241,-4.072 41.993,-10.351 62.084,-18.849 8.836,-3.796 17.429,-7.896 25.829,-12.401 z"
   id="o17"
   style="fill:#0000ff;fill-opacity:1" /><path
   d="m 474.051,561.926 c -11.888,5.027 -24.157,8.772 -36.712,11.234 L 409.168,421.931 c 2.178,-0.541 4.271,-1.291 6.261,-2.229 l 73.525,135.124 c -4.848,2.574 -9.854,4.974 -14.854,7.1 z"
   id="s17"
   style="fill:#0000ff;fill-opacity:1" />
      <path
   d="m 674.995,242.188 -90.584,49.3 c 2.885,5.4 5.5,11 8,16.681 5.592,13.2 9.7,26.9 12.5,40.837 L 706.283,330.123 C 702.211,308.883 695.932,288.131 687.434,268.04 683.627,259.2 679.5,250.6 675,242.188 Z"
   id="o13"
   style="fill:#00ff00;fill-opacity:1" /><path
   d="m 573.926,315.95 c 5.027,11.9 8.8,24.2 11.2,36.711 l -151.229,28.17 c -0.541,-2.177 -1.291,-4.271 -2.229,-6.26 l 135.123,-73.525 c 2.606,4.854 5.009,9.854 7.109,14.904 z"
   id="s13"
   style="fill:#00ff00;fill-opacity:1" />
      <path
   d="m 625.243,604.167 -74.852,-70.902 c -0.84,0.868 -1.678,1.738 -2.533,2.594 -13.725,13.724 -29.081,25.313 -45.823,34.639 l 49.287,90.6 c 25.391,-14.035 48.662,-31.543 69.437,-52.317 1.514,-1.581 3.041,-3.081 4.441,-4.614 z"
   id="o2"
   style="fill:#00ff00;fill-opacity:1" /><path
   d="M 533.705,521.705 C 521.35,534.06 507.53,544.502 492.467,552.912 L 418.939,417.783 c 1.886,-1.18 3.646,-2.539 5.26,-4.054 l 111.661,105.77 c -0.715,0.701 -1.46,1.501 -2.16,2.206 z"
   id="s2"
   style="fill:#00ff00;fill-opacity:1" />
      <path
   d="m 605.578,352.926 c 2.068,11.8 3.1,23.9 3.1,36.1 0,8.396 -0.503,16.715 -1.484,24.94 l 102.251,13.367 c 1.546,-12.629 2.33,-25.408 2.33,-38.308 0,-18.6 -1.623,-36.95 -4.832,-54.958 z"
   id="o6"
   style="fill:#0000ff;fill-opacity:1" /><path
   d="m 434.658,384.765 151.235,-28.172 c 1.847,10.6 2.8,21.4 2.8,32.4 0,7.521 -0.448,14.975 -1.319,22.345 L 434.856,391.4 c 0.056,-0.796 0.095,-1.596 0.095,-2.406 -0.019,-1.394 -0.151,-2.794 -0.251,-4.229 z"
   id="s6"
   style="fill:#0000ff;fill-opacity:1" />
      <path
   d="m 367.069,389 c 0,-0.81 0.039,-1.61 0.095,-2.406 L 214.646,366.656 c -0.871,7.37 -1.319,14.823 -1.319,22.345 0,11 0.9,21.8 2.8,32.4 L 367.363,393.228 C 367.169,391.8 367.1,390.4 367.1,389 Z"
   id="s11"
   style="fill:#0000ff;fill-opacity:1" /><path
   d="M 95.046,443.96 C 91.837,425.951 90.213,407.601 90.213,389 c 0,-12.899 0.784,-25.678 2.331,-38.307 l 102.25,13.367 c -0.981,8.225 -1.484,16.544 -1.484,24.94 0,12.2 1,24.2 3.1,36.075 z"
   id="o11"
   style="fill:#0000ff;fill-opacity:1" />
      <path
   d="m 587.706,480.062 c -8.97,18.388 -20.556,35.244 -34.564,50.299 l 74.847,70.9 c 21.496,-22.955 39.216,-48.725 52.841,-76.883 z"
   id="o15"
   style="fill:#0000ff;fill-opacity:1" /><path
   d="m 569.628,471.458 c -8.065,16.491 -18.461,31.616 -31.017,45.138 L 426.952,410.8 c 1.425,-1.691 2.688,-3.522 3.766,-5.471 z"
   id="s15"
   style="fill:#0000ff;fill-opacity:1" />
    </g>
    <g
   id="d">
      <path
   id="d2"
   fill="#ED3737"
   d="m 622.88,610.88 c -20.979,20.979 -44.481,38.659 -70.124,52.831 l 7.533,13.8 c 30.7,-16.899 54.398,-35.119 78.62,-60.443 l -11.488,-10.882 c -1.499,1.614 -3.021,3.114 -4.521,4.694 z"
   style="fill:#0000ff" />
      <path
   id="d17"
   fill="#4F9962"
   d="m 523.14,678.127 c -20.291,8.582 -41.251,14.923 -62.702,19.034 l 2.886,15.5 c 34.421,-6.584 62.59,-16.587 93.452,-33.186 l -7.529,-13.838 C 540.768,670.2 532.1,674.4 523.1,678.127 Z"
   style="fill:#666666" />
      <path
   id="d15"
   fill="#4F9962"
   d="m 630.166,603.32 11.494,10.888 c 23.974,-25.555 40.883,-50.205 56.096,-81.778 l -14.218,-6.766 C 669.777,554.1 651.9,580.1 630.2,603.32 Z"
   style="fill:#666666" />
      <path
   id="d6"
   fill="#4F9962"
   d="m 725.388,330.608 -15.484,2.884 c 3.243,18.2 4.9,36.7 4.9,55.5 0,13.03 -0.792,25.939 -2.355,38.696 l 15.643,2.045 C 732.446,395 731.6,365.1 725.4,330.608 Z"
   style="fill:#666666" />
      <path
   id="d14"
   fill="#ED3737"
   d="m 111.874,266.859 c 1.555,-3.676 3.195,-7.305 4.881,-10.906 l -14.23,-6.771 c -14.904,31.716 -23.368,60.385 -28.08,95.111 l 15.653,2.046 C 93.802,319 101.1,292.4 111.9,266.859 Z"
   style="fill:#0000ff" />
      <path
   id="d10"
   fill="#ED3737"
   d="m 690.127,511.14 c -1.555,3.677 -3.195,7.306 -4.882,10.907 l 14.229,6.8 c 14.903,-31.712 23.367,-60.381 28.08,-95.11 l -15.652,-2.046 C 708.198,459 700.9,485.6 690.1,511.14 Z"
   style="fill:#0000ff" />
      <path
   id="d11"
   fill="#4F9962"
   d="m 87.214,389 c 0,-13.03 0.792,-25.938 2.355,-38.696 l -15.643,-2.045 c -4.373,34.77 -3.564,64.7 2.7,99.134 l 15.485,-2.885 C 88.854,426.3 87.2,407.8 87.2,389 Z"
   style="fill:#666666" />
      <path
   id="d19"
   fill="#4F9962"
   d="m 278.859,678.127 c -3.676,-1.555 -7.305,-3.195 -10.906,-4.882 l -6.771,14.2 c 31.715,14.9 60.4,23.4 95.1,28.08 l 2.046,-15.652 C 331.017,696.2 304.4,688.9 278.9,678.127 Z"
   style="fill:#666666" />
      <path
   id="d8"
   fill="#ED3737"
   d="M 111.874,511.14 C 103.291,490.849 96.951,469.891 92.84,448.439 l -15.494,2.9 c 6.585,34.4 16.6,62.6 33.2,93.45 l 13.837,-7.529 C 119.825,528.8 115.6,520.1 111.9,511.14 Z"
   style="fill:#0000ff" />
      <path
   id="d16"
   fill="#4F9962"
   d="M 179.12,610.88 C 158.141,589.901 140.462,566.4 126.289,540.756 l -13.844,7.5 c 16.9,30.7 35.1,54.4 60.4,78.621 l 10.883,-11.488 C 182.209,613.9 180.7,612.4 179.1,610.88 Z"
   style="fill:#666666" />
      <path
   id="d7"
   fill="#ED3737"
   d="m 186.679,618.167 -10.888,11.494 c 25.558,24 50.2,40.9 81.8,56.095 l 6.765,-14.217 C 235.892,657.8 209.9,639.9 186.7,618.167 Z"
   style="fill:#0000ff" />
      <path
   id="d3"
   fill="#ED3737"
   d="m 401,702.786 c -13.026,0 -25.93,-0.792 -38.684,-2.354 l -2.057,15.7 c 14.603,1.8 28.2,2.8 41.6,2.828 0.001,0 0,0 0,0 18.557,0 37.397,-1.848 57.523,-5.491 l -2.905,-15.602 C 438.306,701.1 419.8,702.8 401,702.786 Z"
   style="fill:#0000ff" />
      <path
   id="d1"
   fill="#4F9962"
   d="m 523.14,99.874 c 3.677,1.6 7.3,3.2 10.9,4.882 l 6.771,-14.23 C 509.092,75.621 480.424,67.157 445.701,62.447 l -2.046,15.652 C 470.984,81.8 497.6,89.1 523.1,99.874 Z"
   style="fill:#666666" />
      <path
   id="d20"
   fill="#ED3737"
   d="m 401,75.214 c 13.03,0 25.9,0.8 38.7,2.355 l 2.045,-15.642 c -14.604,-1.835 -28.238,-2.729 -41.611,-2.729 -18.558,0 -37.395,1.772 -57.521,5.416 l 2.884,15.5 C 363.681,76.9 382.2,75.2 401,75.214 Z"
   style="fill:#0000ff" />
      <path
   id="d18"
   fill="#ED3737"
   d="m 615.32,159.833 10.888,-11.494 C 600.651,124.365 576.001,107.457 544.43,92.244 l -6.766,14.2 C 566.107,120.2 592.1,138.1 615.3,159.833 Z"
   style="fill:#0000ff" />
      <path
   id="d5"
   fill="#4F9962"
   d="M 278.859,99.874 C 299.151,91.291 320.11,84.951 341.562,80.84 l -2.886,-15.494 c -34.42,6.584 -62.589,16.588 -93.452,33.188 l 7.529,13.836 C 261.231,107.8 269.9,103.6 278.9,99.874 Z"
   style="fill:#666666" />
      <path
   id="d12"
   fill="#ED3737"
   d="m 179.12,167.12 c 20.979,-20.979 44.48,-38.658 70.124,-52.831 l -7.533,-13.843 c -30.701,16.9 -54.399,35.119 -78.621,60.442 l 11.489,10.882 c 1.499,-1.57 3.021,-3.07 4.521,-4.65 z"
   style="fill:#0000ff" />
      <path
   id="d9"
   fill="#4F9962"
   d="m 171.833,174.679 -11.494,-10.888 c -23.975,25.557 -40.883,50.207 -56.095,81.779 l 14.218,6.8 C 132.223,223.9 150.1,197.9 171.8,174.679 Z"
   style="fill:#666666" />
      <path
   id="d4"
   fill="#4F9962"
   d="m 622.88,167.12 c 20.979,21 38.7,44.5 52.8,70.124 l 13.843,-7.532 c -16.898,-30.7 -35.117,-54.398 -60.442,-78.622 l -10.883,11.489 c 1.593,1.521 3.102,3.021 4.702,4.541 z"
   style="fill:#666666" />
      <path
   id="d13"
   fill="#ED3737"
   d="m 690.127,266.859 c 8.582,20.3 14.9,41.3 19,62.703 l 15.494,-2.886 c -6.587,-34.424 -16.591,-62.592 -33.188,-93.451 l -13.836,7.529 c 4.579,8.446 8.803,17.146 12.503,26.105 z"
   style="fill:#0000ff" />
    </g>
    <g
   id="t">
      <path
   id="t10"
   fill="#ED3737"
   d="m 603.714,417.519 -13.899,-1.817 c -2.282,16.329 -6.661,32.233 -13.125,47.5 -0.843,1.992 -1.729,3.96 -2.636,5.917 l 12.659,6.023 c 0.994,-2.145 1.967,-4.301 2.891,-6.485 C 596.562,452.2 601.3,435.1 603.7,417.519 Z"
   style="fill:#0000ff" />
      <path
   id="t13"
   fill="#ED3737"
   d="m 581.775,292.911 -12.314,6.701 c 2.618,4.9 5,10 7.2,15.2 5.112,12.1 8.9,24.6 11.4,37.331 l 13.781,-2.567 C 599.157,335.821 595.063,322.379 589.555,309.359 587.231,303.7 584.6,298.2 581.8,292.911 Z"
   style="fill:#0000ff" />
      <path
   id="t3"
   fill="#ED3737"
   d="m 436.508,590.631 -2.567,-13.784 c -10.799,1.878 -21.797,2.827 -32.94,2.8 -7.649,0 -15.229,-0.456 -22.724,-1.343 l -1.817,13.9 c 8.094,1 16.3,1.5 24.5,1.5 12.053,-0.004 23.94,-1.004 35.54,-3.073 z"
   style="fill:#0000ff" />
      <path
   id="t2"
   fill="#ED3737"
   d="m 548.214,531.201 -10.177,-9.639 c -0.733,0.757 -1.464,1.517 -2.211,2.3 -12.561,12.561 -26.61,23.173 -41.926,31.721 l 6.7,12.314 c 16.491,-9.188 31.617,-20.604 45.137,-34.124 0.837,-0.873 1.663,-1.673 2.463,-2.572 z"
   style="fill:#0000ff" />
      <path
   id="t8"
   fill="#ED3737"
   d="m 220.225,485.089 12.315,-6.701 c -2.619,-4.934 -5.037,-9.987 -7.228,-15.169 -5.113,-12.087 -8.919,-24.562 -11.421,-37.329 l -13.781,2.566 c 2.685,13.8 6.8,27.2 12.3,40.2 2.358,5.644 4.99,11.144 7.79,16.433 z"
   style="fill:#0000ff" />
      <path
   id="t14"
   fill="#ED3737"
   d="m 198.287,360.482 13.899,1.817 c 2.282,-16.33 6.661,-32.235 13.125,-47.519 0.843,-1.992 1.729,-3.959 2.635,-5.916 l -12.659,-6.024 c -0.995,2.145 -1.967,4.301 -2.891,6.5 -6.958,16.46 -11.696,33.56 -14.096,51.142 z"
   style="fill:#0000ff" />
      <path
   id="t7"
   fill="#ED3737"
   d="m 317.252,560.337 c -16.775,-8.201 -32.16,-18.774 -45.91,-31.548 l -9.639,10.2 c 14.825,13.8 31.4,25.2 49.5,34.033 z"
   style="fill:#0000ff" />
      <path
   id="t9"
   fill="#4F9962"
   d="m 229.663,305.252 c 8.202,-16.776 18.775,-32.161 31.548,-45.911 l -10.175,-9.638 c -13.792,14.825 -25.199,31.421 -34.033,49.525 z"
   style="fill:#666666" />
      <path
   id="t4"
   fill="#4F9962"
   d="m 543.201,241.787 -9.64,10.176 c 0.758,0.7 1.5,1.5 2.3,2.2 12.561,12.6 23.2,26.6 31.7,41.926 l 12.314,-6.701 C 570.687,272.897 559.271,257.771 545.751,244.252 544.9,243.4 544,242.6 543.2,241.787 Z"
   style="fill:#666666" />
      <path
   id="t17"
   fill="#4F9962"
   d="m 497.088,569.775 -6.7,-12.314 c -4.934,2.619 -9.987,5.037 -15.169,7.2 -12.088,5.112 -24.564,8.919 -37.33,11.42 l 2.566,13.781 c 13.756,-2.685 27.197,-6.779 40.219,-12.287 5.607,-2.375 11.126,-4.975 16.426,-7.8 z"
   style="fill:#666666" />
      <path
   id="t15"
   fill="#4F9962"
   d="m 572.337,472.748 c -8.201,16.775 -18.774,32.16 -31.548,45.91 l 10.175,9.6 c 13.792,-14.825 25.199,-31.422 34.033,-49.525 z"
   style="fill:#666666" />
      <path
   id="t18"
   fill="#ED3737"
   d="m 490.771,205.003 -6.024,12.66 c 16.776,8.2 32.2,18.8 45.9,31.548 l 9.639,-10.175 C 525.472,225.2 508.9,213.8 490.8,205.003 Z"
   style="fill:#0000ff" />
      <path
   id="t20"
   fill="#ED3737"
   d="m 365.476,187.372 2.567,13.784 c 10.804,-1.88 21.808,-2.83 32.957,-2.83 7.652,0 15.2,0.5 22.7,1.344 l 1.816,-13.901 c -8.097,-0.964 -16.285,-1.459 -24.551,-1.459 -11.984,-0.01 -23.865,0.99 -35.465,3.062 z"
   style="fill:#0000ff" />
      <path
   id="t5"
   fill="#4F9962"
   d="m 304.911,208.225 6.701,12.315 c 4.934,-2.619 9.988,-5.037 15.169,-7.228 12.087,-5.113 24.564,-8.919 37.331,-11.421 l -2.567,-13.781 c -13.755,2.685 -27.197,6.779 -40.218,12.3 -5.608,2.39 -11.127,4.99 -16.427,7.815 z"
   style="fill:#666666" />
      <path
   id="t1"
   fill="#4F9962"
   d="m 429.519,186.287 -1.817,13.899 c 16.33,2.3 32.2,6.7 47.5,13.1 1.992,0.8 4,1.7 5.9,2.635 l 6.024,-12.659 c -2.145,-0.995 -4.301,-1.967 -6.485,-2.891 C 464.223,193.4 447.1,188.7 429.5,186.287 Z"
   style="fill:#666666" />
      <path
   id="t12"
   fill="#ED3737"
   d="m 253.787,246.799 10.176,9.639 c 0.733,-0.757 1.464,-1.517 2.211,-2.264 12.56,-12.561 26.61,-23.173 41.926,-31.721 l -6.701,-12.314 c -16.491,9.188 -31.617,20.605 -45.136,34.1 -0.837,0.861 -1.663,1.661 -2.463,2.56 z"
   style="fill:#0000ff" />
      <path
   id="t6"
   fill="#4F9962"
   d="m 588.844,356.043 c 1.881,10.8 2.8,21.8 2.8,32.957 0,7.652 -0.456,15.235 -1.344,22.7 l 13.9,1.816 c 0.964,-8.097 1.459,-16.286 1.459,-24.551 0,-12.019 -1.026,-23.88 -3.062,-35.524 z"
   style="fill:#666666" />
      <path
   id="t11"
   fill="#4F9962"
   d="m 213.157,421.958 c -1.88,-10.805 -2.83,-21.809 -2.83,-32.958 0,-7.653 0.457,-15.235 1.344,-22.734 l -13.9,-1.817 c -0.964,8.097 -1.459,16.286 -1.459,24.551 0,12 1,23.9 3.1,35.525 z"
   style="fill:#666666" />
      <path
   id="t19"
   fill="#4F9962"
   d="m 372.482,591.714 1.817,-13.899 c -16.33,-2.282 -32.234,-6.661 -47.519,-13.125 -1.992,-0.843 -3.96,-1.729 -5.916,-2.635 l -6.023,12.658 c 2.144,1 4.3,2 6.5,2.9 16.437,6.987 33.559,11.687 51.159,14.101 z"
   style="fill:#666666" />
      <path
   id="t16"
   fill="#4F9962"
   d="m 258.799,536.214 9.639,-10.177 c -0.757,-0.733 -1.517,-1.464 -2.264,-2.211 -12.561,-12.56 -23.173,-26.609 -31.721,-41.926 l -12.314,6.701 c 9.188,16.5 20.6,31.6 34.1,45.1 0.861,0.899 1.661,1.699 2.561,2.513 z"
   style="fill:#666666" />
    </g>
    <g
   id="bull">
      <path
   id="s25"
   fill="#4F9962"
   d="m 432.438,389 c 0,17.087 -13.852,30.938 -30.938,30.938 -17.086,0 -30.938,-13.838 -30.9,-30.938 0.038,-17.1 13.852,-30.938 30.938,-30.938 17.086,0 30.9,13.838 30.862,30.938 z M 401.5,372.602 c -9.057,0 -16.398,7.342 -16.398,16.4 0,9.058 7.342,16.4 16.4,16.398 9.058,-0.002 16.398,-7.342 16.398,-16.398 0,-9.056 -7.343,-16.402 -16.4,-16.4 z"
   style="fill:#0000ff" />
      <circle
   id="d25"
   fill="#ed3737"
   cx="401.5"
   cy="389"
   r="13.7" />
    </g>
  </g>
  <g
   id="score">
    <path
   fill="#ffffff"
   id="score_1_"
   d="M371.787 33.895l8.835-6.745c2.192-1.72 3.035-2.833 3.035-4.249c0-1.483-1.045-2.394-2.63-2.394 s-2.833 0.911-4.687 3.035l-4.418-3.676c2.529-3.271 5.025-5.058 9.611-5.058c5.16 0 8.7 3.1 8.7 7.52v0.068 c0 3.777-1.956 5.732-5.463 8.262l-4.046 2.833h9.746v5.328h-18.682V33.895z M393.096 27.083v-0.067 c0-6.677 4.249-12.275 10.959-12.275s10.893 5.5 10.9 12.208v0.067c0 6.677-4.216 12.275-10.96 12.3 C397.244 39.3 393.1 33.8 393.1 27.083z M408.372 27.083v-0.067c0-3.743-1.787-6.475-4.384-6.475s-4.316 2.63-4.316 6.4 v0.067c0 3.8 1.8 6.5 4.4 6.475C406.686 33.5 408.4 30.8 408.4 27.083z M276.408 57.935l2.226-5.317 c2.324 1 4.3 1.3 6.2 0.689c2.056-0.659 2.978-2.089 2.462-3.694l-0.02-0.064c-0.516-1.605-2.184-2.168-4.143-1.54 c-1.381 0.443-2.382 1.296-3.235 2.277l-4.352-0.87l-3.015-11.604l15.027-4.821l1.648 5.138l-10.115 3.245l0.899 3.5 c0.873-0.811 1.829-1.472 3.339-1.956c4.046-1.298 8.428-0.225 10 4.656l0.021 0.064c1.607 5.009-1.256 9.221-6.715 11 C282.689 59.9 279.5 59.4 276.4 57.935z M171.124 101.515l-2.706 3.055l-3.958-3.388l4.485-5.612l3.867-2.766l13.83 19.3 l-5.239 3.747L171.124 101.515z M186.548 106.156l3.262-10.626c0.782-2.674 0.82-4.07-0.003-5.222 c-0.863-1.207-2.243-1.339-3.532-0.417s-1.774 2.389-2.047 5.196l-5.731-0.42c0.154-4.132 1.145-7.038 4.874-9.706 c4.197-3.001 8.861-2.565 11.5 1.055l0.04 0.055c2.196 3.1 1.7 5.8 0.4 9.897l-1.644 4.658l7.927-5.669l3.1 4.3 l-15.195 10.869L186.548 106.156z M108.278 192.569l-1.795-5.159c1.994-0.534 3.407-1.417 4.534-2.932 c1.61-2.165 0.96-4.456-1.294-6.51c0.195 1.659-0.189 3.475-1.437 5.152c-2.737 3.68-7.002 4.668-10.709 1.911l-0.054-0.04 c-4.194-3.119-4.506-8.352-1.285-12.681c2.052-2.76 4.044-3.8 6.545-4.168c2.379-0.373 5.2 0.3 8.7 2.94l0.054 0 c6.196 4.6 8.1 10.8 3.9 16.515C113.34 190.5 110.9 191.8 108.3 192.569z M105.102 174.406l-0.054-0.041 c-1.462-1.087-3.356-0.856-4.583 0.794c-1.229 1.65-0.891 3.5 0.6 4.543l0.055 0.04c1.434 1.1 3.3 0.8 4.502-0.854 S106.482 175.4 105.1 174.406z M46.521 290.226l-0.424 4.06l-5.19-0.454l0.383-7.174l1.536-4.5l22.499 7.683l-2.081 6.1 L46.521 290.226z M65.91 273.936l-3.694 10.818l-4.721-0.471l-9.831-16.292l2.136-6.255l13.531 4.62l0.97-2.84l4.628 1.6 l-0.97 2.841l4.34 1.481l-2.049 6L65.91 273.936z M61.314 272.366l-6.415-2.19l4.595 7.519L61.314 272.366z M33.399 398.9 l0.837 3.995l-5.081 1.154l-1.827-6.948l0.088-4.755l23.77 0.443l-0.12 6.439L33.399 398.884z M33.664 384.658l0.837 4 l-5.081 1.153l-1.827-6.948l0.088-4.754l23.77 0.442l-0.12 6.44L33.664 384.658z M64.986 508.582l-0.064 0 c-2.745 0.824-4.829-0.135-6.59-2.246c-0.445 2.035-1.523 3.838-3.978 4.575l-0.064 0.02c-3.617 1.087-7.336-1.564-8.859-6.635 c-1.523-5.07 0.119-9.331 3.736-10.417l0.064-0.02c2.455-0.738 4.3 0.2 5.8 1.625c0.377-2.613 1.419-4.651 4.229-5.496 l0.065-0.019c4.037-1.213 7.8 1.9 9.4 7.302C70.443 502.7 68.9 507.4 65 508.582z M51.701 499.404l-0.064 0 c-1.26 0.378-2.07 1.783-1.556 3.495c0.515 1.7 1.9 2.4 3.2 2.069l0.064-0.02c1.421-0.427 2.157-1.845 1.652-3.524 C54.485 499.8 53.1 499 51.7 499.404z M60.598 496.203l-0.064 0.02c-1.453 0.437-2.047 2.094-1.475 4 s1.981 3 3.4 2.524l0.064-0.02c1.356-0.407 2.202-1.93 1.571-4.028S61.955 495.8 60.6 496.203z M110.14 614.5 l3.004 2.764l-3.461 3.893l-5.528-4.588l-2.693-3.918l19.591-13.469l3.649 5.309L110.14 614.514z M115.495 595 c-0.451 2.438-1.997 4.892-5.638 7.396l-0.056 0.037c-6.058 4.165-12.696 4.391-16.879-1.695c-1.873-2.723-2.421-5.128-2.312-7.945 l5.545-0.088c-0.068 1.8 0.1 3.3 1.2 4.875c1.566 2.3 4 2.3 6.7 0.821c-1.485-0.493-3.068-1.247-4.386-3.165 c-2.35-3.418-2.246-7.908 1.645-10.584l0.056-0.037c4.363-3 9.391-1.342 12.3 2.9 C115.521 590.3 115.9 592.7 115.5 595.04z M105.232 589.695l-0.056 0.039c-1.389 0.955-1.775 2.775-0.61 4.5 s2.937 1.9 4.3 0.994l0.055-0.038c1.417-0.974 1.803-2.794 0.638-4.489C108.421 589 106.6 588.7 105.2 589.695z M180.896 683.969l8.644 6.682l-3.362 4.349l-14.38-11.116l3.011-3.896l19.67-8.407l5.709 4.413L180.896 683.969z M295.708 741.9 l4.051 0.499l-0.55 5.181l-7.166-0.516l-4.471-1.62l8.1-22.352l6.056 2.194L295.708 741.924z M291.046 723.914l-4.425 3.2 c-1.085-1.757-2.337-2.855-4.112-3.498c-2.537-0.92-4.543 0.361-5.863 3.111c1.532-0.664 3.382-0.818 5.347-0.106 c4.312 1.6 6.5 5.4 4.9 9.707l-0.023 0.062c-1.781 4.914-6.703 6.718-11.775 4.88c-3.233-1.172-4.802-2.781-5.875-5.07 c-1.042-2.172-1.169-5.087 0.312-9.177l0.023-0.063c2.631-7.26 8.037-10.896 14.695-8.483 C287.561 719.7 289.6 721.6 291 723.914z M274.563 732.182l-0.022 0.062c-0.621 1.7 0.1 3.5 2.1 4.2 c1.934 0.7 3.567-0.142 4.188-1.854l0.023-0.063c0.608-1.681-0.18-3.364-2.113-4.065 C276.782 729.7 275.1 730.6 274.6 732.182z M406.18 743.311l-4.264 3.958c-1.621-1.782-3.371-2.825-5.527-2.905 c-1.854-0.068-3.068 0.83-3.122 2.279l-0.002 0.067c-0.057 1.5 1.3 2.5 3.8 2.569l2.763 0.104l0.817 3.438l-5.607 4.7 l9.031 0.336l-0.197 5.291l-17.051-0.635l0.174-4.685l5.808-4.609c-3.343-0.866-6.002-2.855-5.853-6.866l0.002-0.066 c0.178-4.785 4.134-7.709 9.392-7.514C400.843 738.9 404 740.7 406.2 743.311z M519.986 737.819l3.586-1.95l2.566 4.5 l-6.129 3.749l-4.578 1.283l-6.416-22.893l6.203-1.737L519.986 737.819z M499.682 743.964l10.521-2.948l1.482 5.293l-17.502 4.9 l-1.328-4.741l4.992-20.801l6.949-1.947L499.682 743.964z M600.547 692.956l3.656-10.497c0.881-2.643 0.971-4.036 0.191-5.218 c-0.818-1.238-2.192-1.422-3.516-0.548c-1.322 0.873-1.861 2.32-2.238 5.115l-5.712-0.633c0.308-4.123 1.405-6.99 5.232-9.518 c4.306-2.843 8.95-2.233 11.4 1.48l0.037 0.057c2.082 3.2 1.5 5.861-0.005 9.904l-1.815 4.594l8.132-5.371l2.937 4.4 l-15.59 10.295L600.547 692.956z M672.174 611.85l-1.781 3.672l-4.725-2.194l2.803-6.614l2.978-3.707l18.535 14.888l-4.033 5 L672.174 611.85z M689.27 613.561l-1.074-5.664c2.466-0.485 4.342-1.313 5.588-2.865c1.352-1.682 1.334-3.383 0.02-4.439 l-0.053-0.042c-1.314-1.056-3.017-0.606-4.305 0.997c-0.908 1.131-1.273 2.395-1.445 3.684l-4.111 1.672l-8.91-8.021l9.883-12.305 l4.206 3.379l-6.651 8.281l2.66 2.396c0.281-1.158 0.715-2.236 1.707-3.473c2.662-3.312 6.909-4.832 10.905-1.621l0.053 0 c4.102 3.3 4 8.4 0.4 12.857C695.566 611.7 692.6 613.1 689.3 613.561z M506.312 36.264l-4.065-0.366l0.381-5.196 l7.178 0.282l4.521 1.473l-7.365 22.604l-6.123-1.995L506.312 36.264z M602.149 80.026l-3.75-1.611l1.976-4.82l6.736 2.5 l3.84 2.805l-14.024 19.197l-5.201-3.8L602.149 80.026z M603.352 94.728l0.039-0.055c1.691-2.314 3.931-2.809 6.609-2.188 c-0.873-1.892-1.102-3.979 0.41-6.049l0.039-0.055c2.229-3.049 6.793-3.181 11.068-0.057c4.274 3.1 5.5 7.5 3.3 10.6 l-0.039 0.055c-1.512 2.069-3.57 2.486-5.638 2.229c1.277 2.3 1.7 4.565-0.055 6.935l-0.04 0.1 c-2.486 3.404-7.365 3.224-11.939-0.118C602.54 102.7 600.9 98 603.4 94.728z M614.321 101.948l0.04-0.055 c0.895-1.225 0.367-2.904-1.238-4.078c-1.607-1.174-3.367-1.165-4.263 0.061l-0.04 0.055c-0.835 1.143-0.591 2.9 1.2 4.2 C611.77 103.4 613.5 103.1 614.3 101.948z M619.482 94.025l0.04-0.055c0.775-1.062 0.573-2.671-0.869-3.726 c-1.444-1.055-3.019-0.785-3.795 0.277l-0.04 0.055c-0.875 1.197-0.605 2.8 0.8 3.8 C617.045 95.4 618.6 95.2 619.5 94.025z M685.465 176.235l-6.682-9.275l3.118-3.576l18.976 1.418l3.863 5.4 l-11.602 8.356l1.754 2.435l-3.969 2.859l-1.754-2.436l-3.721 2.68l-3.705-5.144L685.465 176.235z M689.406 173.397l5.499-3.962 l-8.791-0.608L689.406 173.397z M741.448 247.036l-2.189-3.445l4.351-2.868l4.154 5.861l1.591 4.481l-22.405 7.951l-2.153-6.07 L741.448 247.036z M731.415 260.507l5.253 2.502c-1.057 2.164-1.38 4.175-0.658 6.209c0.62 1.7 1.9 2.5 3.3 2.1 l0.062-0.022c1.431-0.508 1.826-2.115 1.003-4.436l-0.925-2.605l2.894-2.029l6.424 3.48l-3.022-8.517l4.99-1.771l5.707 16.1 l-4.418 1.567l-6.428-3.694c0.429 3.426-0.438 6.632-4.22 7.974l-0.063 0.023c-4.513 1.602-8.69-0.996-10.449-5.953 C729.312 267.1 729.8 263.5 731.4 260.507z M753.729 370.365c1.734-1.772 4.386-2.947 8.803-2.994l0.068-0.001 c7.351-0.078 13 3.4 13.1 10.82c0.035 3.305-0.851 5.607-2.512 7.885l-4.652-3.02c1.062-1.462 1.757-2.817 1.736-4.706 c-0.029-2.765-2.101-4.126-5.072-4.397c0.958 1.2 1.9 2.7 1.9 5.072c0.044 4.147-2.548 7.817-7.269 7.868l-0.066 0 c-5.295 0.057-8.543-4.125-8.598-9.284C751.072 374.3 752.1 372.1 753.7 370.365z M759.266 380.524l0.067-0.001 c1.687-0.018 3.021-1.314 2.999-3.371c-0.021-2.057-1.35-3.257-3.035-3.238h-0.068c-1.719 0.019-3.055 1.314-3.032 3.4 C756.219 379.3 757.5 380.5 759.3 380.524z M735.133 496.857l-0.289 4.071l-5.202-0.28l0.144-7.184l1.387-4.548 l22.741 6.93l-1.877 6.161L735.133 496.857z M743.758 488.912l-0.064-0.02c-6.387-1.945-10.503-7.642-8.547-14.062 c1.956-6.419 8.466-8.807 14.853-6.86l0.064 0.02c6.387 1.9 10.5 7.6 8.5 14.1 C756.645 488.5 750.1 490.9 743.8 488.912z M748.211 474.3l-0.064-0.02c-3.58-1.091-6.715-0.178-7.471 2.3 c-0.758 2.5 1.3 4.9 4.9 5.997l0.064 0.02c3.613 1.1 6.7 0.2 7.472-2.306 C753.849 477.8 751.8 475.4 748.2 474.3z" />
  </g>
  </svg>
